<?xml version="1.0" standalone="no"?>
<svg version="1.0" xmlns="http://www.w3.org/2000/svg" width="900.000000pt" height="900.000000pt" viewBox="0 0 900.000000 900.000000" preserveAspectRatio="xMidYMid meet">
    <g transform="translate(0.000000,900.000000) scale(0.100000,-0.100000)"
    fill="#dfdfdf" stroke="none">
    <path d="M4497 7043 c-2 -4 -130 -224 -282 -488 -153 -264 -382 -660 -510
    -880 -128 -220 -521 -899 -875 -1510 -354 -610 -667 -1150 -695 -1200 -29 -49
    -159 -274 -290 -500 -130 -225 -246 -425 -257 -443 l-20 -32 318 2 319 3 128
    220 c70 121 147 254 170 295 24 41 110 190 192 330 81 140 221 381 310 535 89
    154 220 379 290 500 230 396 815 1405 948 1635 130 225 257 442 262 448 1 2
    143 -241 315 -540 172 -299 377 -653 455 -788 78 -135 247 -427 375 -650 128
    -223 306 -531 395 -685 437 -756 695 -1205 721 -1252 l29 -53 318 0 319 0 -20
    33 c-24 40 -195 336 -377 652 -76 132 -178 308 -225 390 -48 83 -148 256 -222
    385 -150 259 -470 815 -583 1010 -70 122 -164 284 -565 980 -107 184 -248 430
    -315 545 -67 116 -229 397 -360 625 -131 228 -244 421 -250 428 -7 8 -15 10
    -18 5z"/>
    <path d="M4472 5158 c-43 -77 -369 -644 -662 -1153 -139 -242 -328 -570 -420
    -730 -92 -159 -235 -408 -319 -553 -83 -145 -151 -265 -151 -268 0 -2 475 -4
    1056 -4 593 0 1054 4 1052 9 -1 4 -70 128 -153 274 l-150 266 -431 3 -431 3
    90 155 c107 186 558 965 740 1280 l130 225 -20 35 c-60 107 -286 496 -293 503
    -4 5 -21 -16 -38 -45z"/>
    <path d="M4977 4198 c-53 -90 -99 -170 -355 -614 -67 -116 -122 -214 -122
    -217 0 -4 100 -7 223 -7 l223 0 178 -307 c98 -170 277 -478 398 -686 l220
    -377 314 0 c173 0 314 2 314 5 0 2 -22 42 -49 87 -26 46 -139 241 -251 433
    -196 337 -331 570 -809 1393 -122 210 -224 382 -226 382 -3 0 -29 -42 -58 -92z"/>
    </g>
</svg>